<svg width="24" height="24" viewBox="0 0 24 24" fill="none" xmlns="http://www.w3.org/2000/svg">
<path d="M5.94886 8.27273H3.27273L6.15341 17H9.39205L12.2727 8.27273H9.59659L7.80682 14.4261H7.73864L5.94886 8.27273ZM16.5394 17.1193C18.6744 17.1193 20.1786 16.0327 20.1701 14.4943C20.1786 13.4247 19.4627 12.6705 18.0565 12.517V12.4489C19.0962 12.3381 19.8548 11.669 19.8462 10.6932C19.8548 9.22301 18.4911 8.15341 16.5565 8.15341C14.5792 8.15341 13.1729 9.28267 13.1644 10.8807H15.4315C15.44 10.3523 15.9045 9.97727 16.5565 9.97727C17.1531 9.97727 17.5707 10.3395 17.5621 10.8466C17.5707 11.375 17.0763 11.75 16.369 11.75H15.4826V13.3864H16.369C17.136 13.3864 17.6729 13.7614 17.6644 14.2898C17.6729 14.831 17.2127 15.2102 16.5565 15.2102C15.8746 15.2102 15.3888 14.848 15.3803 14.3409H12.994C13.0025 15.9688 14.4727 17.1193 16.5394 17.1193Z" fill="white"/>
<circle cx="12" cy="12" r="10.5" stroke="white"/>
</svg>
